<mxfile host="app.diagrams.net" modified="2020-03-16T06:03:37.291Z" agent="Mozilla/5.0 (Windows NT 10.0; Win64; x64) AppleWebKit/537.36 (KHTML, like Gecko) Chrome/80.0.3987.132 Safari/537.36" etag="6LelCZaFM3TQfjxu2Wxx" version="12.8.5" type="github">
  <diagram name="Page-1" id="bd83a815-5ea8-2e97-e5ec-87c9f400f2fa">
    <mxGraphModel dx="868" dy="433" grid="1" gridSize="10" guides="1" tooltips="1" connect="1" arrows="1" fold="1" page="1" pageScale="1.5" pageWidth="1169" pageHeight="826" background="#ffffff" math="0" shadow="0">
      <root>
        <mxCell id="0" style=";html=1;" />
        <mxCell id="1" style=";html=1;" parent="0" />
        <mxCell id="NbjZcQO5YHAJ-I5vPI2F-1" value="&lt;table border=&quot;1&quot; width=&quot;100%&quot; style=&quot;width: 100% ; height: 100% ; border-collapse: collapse&quot;&gt;&lt;tbody&gt;&lt;tr&gt;&lt;td align=&quot;center&quot;&gt;7&lt;/td&gt;&lt;td align=&quot;center&quot;&gt;-2&lt;/td&gt;&lt;td align=&quot;center&quot;&gt;3&lt;/td&gt;&lt;/tr&gt;&lt;tr&gt;&lt;td align=&quot;center&quot;&gt;4&lt;/td&gt;&lt;td align=&quot;center&quot;&gt;-1&lt;/td&gt;&lt;td align=&quot;center&quot;&gt;-2&lt;/td&gt;&lt;/tr&gt;&lt;tr&gt;&lt;td align=&quot;center&quot;&gt;-3&lt;/td&gt;&lt;td align=&quot;center&quot;&gt;5&lt;/td&gt;&lt;td align=&quot;center&quot;&gt;6&lt;/td&gt;&lt;/tr&gt;&lt;/tbody&gt;&lt;/table&gt;" style="text;html=1;strokeColor=none;fillColor=none;overflow=fill;fontStyle=1" vertex="1" parent="1">
          <mxGeometry x="160" y="310" width="150" height="130" as="geometry" />
        </mxCell>
        <mxCell id="NbjZcQO5YHAJ-I5vPI2F-2" value="&lt;table border=&quot;1&quot; width=&quot;100%&quot; style=&quot;width: 100% ; height: 100% ; border-collapse: collapse&quot;&gt;&lt;tbody&gt;&lt;tr&gt;&lt;td align=&quot;center&quot;&gt;7&lt;/td&gt;&lt;td align=&quot;center&quot;&gt;2&lt;/td&gt;&lt;td align=&quot;center&quot;&gt;3&lt;/td&gt;&lt;/tr&gt;&lt;tr&gt;&lt;td align=&quot;center&quot;&gt;4&lt;/td&gt;&lt;td align=&quot;center&quot;&gt;1&lt;/td&gt;&lt;td align=&quot;center&quot;&gt;2&lt;/td&gt;&lt;/tr&gt;&lt;tr&gt;&lt;td align=&quot;center&quot;&gt;3&lt;/td&gt;&lt;td align=&quot;center&quot;&gt;5&lt;/td&gt;&lt;td align=&quot;center&quot;&gt;6&lt;/td&gt;&lt;/tr&gt;&lt;/tbody&gt;&lt;/table&gt;" style="text;html=1;strokeColor=none;fillColor=none;overflow=fill;fontStyle=1" vertex="1" parent="1">
          <mxGeometry x="560" y="310" width="150" height="130" as="geometry" />
        </mxCell>
        <mxCell id="NbjZcQO5YHAJ-I5vPI2F-3" value="" style="endArrow=classic;html=1;exitX=1;exitY=0.5;exitDx=0;exitDy=0;entryX=0;entryY=0.5;entryDx=0;entryDy=0;" edge="1" parent="1" source="NbjZcQO5YHAJ-I5vPI2F-1" target="NbjZcQO5YHAJ-I5vPI2F-2">
          <mxGeometry width="50" height="50" relative="1" as="geometry">
            <mxPoint x="410" y="450" as="sourcePoint" />
            <mxPoint x="460" y="400" as="targetPoint" />
          </mxGeometry>
        </mxCell>
        <mxCell id="NbjZcQO5YHAJ-I5vPI2F-13" value="" style="group" vertex="1" connectable="0" parent="1">
          <mxGeometry x="390" y="270" width="100" height="90" as="geometry" />
        </mxCell>
        <mxCell id="NbjZcQO5YHAJ-I5vPI2F-15" value="" style="endArrow=none;html=1;" edge="1" parent="NbjZcQO5YHAJ-I5vPI2F-13">
          <mxGeometry width="50" height="50" relative="1" as="geometry">
            <mxPoint x="-20" y="64" as="sourcePoint" />
            <mxPoint x="100" y="63.63636363636364" as="targetPoint" />
          </mxGeometry>
        </mxCell>
        <mxCell id="NbjZcQO5YHAJ-I5vPI2F-16" value="" style="endArrow=none;html=1;exitX=0.5;exitY=1;exitDx=0;exitDy=0;" edge="1" parent="NbjZcQO5YHAJ-I5vPI2F-13" source="NbjZcQO5YHAJ-I5vPI2F-19">
          <mxGeometry width="50" height="50" relative="1" as="geometry">
            <mxPoint x="47.05882352941177" y="63.63636363636364" as="sourcePoint" />
            <mxPoint x="47.05882352941177" as="targetPoint" />
          </mxGeometry>
        </mxCell>
        <mxCell id="NbjZcQO5YHAJ-I5vPI2F-17" value="" style="endArrow=none;html=1;strokeWidth=2;strokeColor=#CC0000;" edge="1" parent="NbjZcQO5YHAJ-I5vPI2F-13">
          <mxGeometry width="50" height="50" relative="1" as="geometry">
            <mxPoint y="63.63636363636364" as="sourcePoint" />
            <mxPoint x="47.05882352941177" y="63.63636363636364" as="targetPoint" />
          </mxGeometry>
        </mxCell>
        <mxCell id="NbjZcQO5YHAJ-I5vPI2F-18" value="" style="endArrow=none;html=1;strokeWidth=2;exitX=0.5;exitY=0;exitDx=0;exitDy=0;strokeColor=#CC0000;" edge="1" parent="NbjZcQO5YHAJ-I5vPI2F-13">
          <mxGeometry width="50" height="50" relative="1" as="geometry">
            <mxPoint x="47.05882352941177" y="63.95454545454545" as="sourcePoint" />
            <mxPoint x="100" y="6.681818181818182" as="targetPoint" />
          </mxGeometry>
        </mxCell>
        <mxCell id="NbjZcQO5YHAJ-I5vPI2F-19" value="(0,0)" style="text;html=1;strokeColor=none;fillColor=none;align=center;verticalAlign=middle;whiteSpace=wrap;rounded=0;" vertex="1" parent="NbjZcQO5YHAJ-I5vPI2F-13">
          <mxGeometry x="41.18" y="63.64" width="11.76" height="26.36" as="geometry" />
        </mxCell>
        <mxCell id="NbjZcQO5YHAJ-I5vPI2F-20" value="Relu Layer" style="text;html=1;strokeColor=none;fillColor=none;align=center;verticalAlign=middle;whiteSpace=wrap;rounded=0;fontStyle=1" vertex="1" parent="1">
          <mxGeometry x="395" y="380" width="90" height="20" as="geometry" />
        </mxCell>
      </root>
    </mxGraphModel>
  </diagram>
</mxfile>
